# xmcd CD database file
#
# Track frame offsets:
#	150
#	14780
#	34325
#	48920
#
# Disc length: 908 seconds
#
# Revision: 0
# Processed by: cddbd v1.5.1PL0 Copyright (c) Steve Scherf et al.
# Submitted via: CDex 1.51
#
DISCID=30038a04
DTITLE=ZYYG - 壊したい現実
DYEAR=1994
DGENRE=JPop
TTITLE0=壊したい現実
TTITLE1=思い出にはできなくて
TTITLE2=壊したい現実(カラオケ)
TTITLE3=思い出にはできなくて(カラオケ)
EXTD=YEAR: 1994
EXTT0=
EXTT1=
EXTT2=
EXTT3=
PLAYORDER=
